<?xml version="1.0" standalone="no"?>
<!DOCTYPE svg PUBLIC "-//W3C//DTD SVG 20010904//EN"
 "http://www.w3.org/TR/2001/REC-SVG-20010904/DTD/svg10.dtd">
<svg version="1.0" xmlns="http://www.w3.org/2000/svg"
 width="394.000000pt" height="380.000000pt" viewBox="0 0 394.000000 380.000000"
 preserveAspectRatio="xMidYMid meet">

<g transform="translate(0.000000,380.000000) scale(0.100000,-0.100000)"
fill="#000000" stroke="none">
<path d="M2213 3765 c-54 -16 -121 -56 -151 -88 l-24 -25 -41 19 c-120 54
-280 -18 -348 -157 -27 -54 -32 -77 -33 -137 -1 -90 24 -146 96 -213 l51 -47
-16 -77 c-18 -95 -37 -125 -96 -155 -58 -29 -140 -110 -174 -172 -14 -27 -35
-83 -47 -125 -19 -69 -21 -99 -18 -280 l3 -203 -39 -100 c-46 -120 -55 -221
-22 -252 18 -17 19 -17 10 2 -5 11 -9 52 -8 90 1 56 8 88 39 165 41 103 43
127 35 400 -8 263 117 451 328 495 94 20 96 18 22 -20 -82 -42 -128 -90 -177
-185 -22 -41 -54 -101 -72 -133 -20 -34 -35 -76 -37 -103 -3 -26 -10 -56 -16
-68 -8 -14 -11 -69 -9 -168 1 -95 -1 -148 -8 -153 -6 -3 -11 -21 -11 -40 0
-19 -10 -60 -22 -92 -24 -63 -29 -146 -10 -165 7 -7 12 -20 12 -30 0 -10 6
-18 13 -18 27 0 134 -59 170 -94 31 -31 37 -34 37 -17 0 48 84 106 165 113 17
2 33 10 36 18 5 12 8 10 17 -7 9 -15 9 -29 1 -52 -9 -24 -18 -32 -47 -37 -54
-10 -72 -22 -87 -57 -18 -45 -29 -117 -17 -117 5 0 12 23 15 51 8 69 24 90 82
108 35 12 53 24 65 46 20 39 121 91 133 69 6 -10 28 -14 77 -14 38 0 79 -5 92
-11 36 -16 68 -70 68 -114 0 -63 -35 -118 -150 -233 -87 -87 -124 -117 -190
-151 -45 -24 -83 -41 -84 -39 -1 1 -13 33 -28 69 l-25 66 59 49 c83 68 171
163 192 208 25 52 12 57 -14 6 -42 -81 -220 -250 -265 -250 -14 0 -25 -4 -25
-9 0 -5 8 -8 18 -7 21 1 56 -66 73 -142 14 -61 9 -70 -44 -79 l-35 -5 -18 61
c-9 34 -21 64 -25 67 -13 8 -11 -9 6 -49 14 -34 14 -36 -8 -42 -12 -4 -43 -20
-68 -36 -41 -26 -54 -29 -130 -29 -111 0 -270 -23 -450 -65 -80 -19 -156 -35
-168 -35 -21 0 -102 -22 -148 -41 -27 -10 -26 -11 -9 63 14 56 14 57 -5 45
-18 -13 -36 -35 -108 -133 -30 -39 -36 -43 -42 -28 -6 17 -8 16 -19 -8 -12
-26 -45 -46 -57 -34 -11 11 19 65 40 72 11 4 32 18 46 32 14 14 19 20 10 14
-9 -6 -36 -19 -60 -27 -43 -15 -44 -15 -20 3 l23 19 -31 -5 c-17 -2 -31 -2
-31 1 0 9 64 43 114 60 60 21 62 21 46 2 -7 -9 -11 -18 -8 -20 2 -3 16 13 30
34 l26 39 -64 -18 -64 -17 35 38 c19 22 35 41 35 44 0 2 9 27 20 54 l19 50
-58 -30 c-67 -34 -129 -91 -138 -127 -4 -18 -8 -21 -14 -10 -6 8 -9 -8 -10
-42 0 -30 -4 -64 -9 -75 -7 -18 -9 -18 -19 9 -14 36 -19 120 -8 161 l7 30 -15
-25 c-8 -14 -15 -50 -15 -80 -1 -80 -18 -42 -26 59 -6 73 -5 81 9 75 10 -4 19
0 23 9 7 20 -16 69 -36 75 -12 4 -13 2 -2 -9 14 -15 16 -59 3 -59 -14 0 -21
14 -23 44 -1 14 -6 26 -10 26 -13 0 -9 -35 7 -56 9 -12 14 -42 14 -79 0 -54
-1 -58 -14 -41 -8 10 -26 50 -41 87 -14 38 -35 79 -46 91 l-20 23 16 -25 c26
-40 21 -55 -12 -32 -29 21 -93 45 -100 38 -8 -9 83 -98 120 -117 37 -19 68
-54 72 -82 1 -8 8 -22 15 -31 15 -17 43 -107 36 -114 -2 -2 -10 8 -17 24 -20
46 -69 112 -97 130 -21 13 -18 9 10 -22 41 -44 75 -104 59 -104 -20 0 -98 87
-110 124 -6 21 -14 35 -17 33 -2 -3 3 -22 11 -42 16 -37 16 -37 -7 -30 -29 9
-86 17 -67 9 92 -38 104 -45 90 -54 -21 -13 -38 -12 -20 1 12 9 10 10 -9 5
-13 -2 -47 4 -75 14 -51 19 -51 19 -26 0 14 -11 44 -28 67 -37 24 -10 43 -21
43 -25 0 -5 16 -8 35 -8 19 0 53 -7 76 -17 38 -15 40 -17 23 -30 -10 -7 -27
-13 -38 -14 -12 0 -15 -3 -8 -6 7 -3 26 0 42 5 28 10 29 10 19 -16 -6 -14 -8
-36 -4 -49 5 -20 1 -19 -44 14 -34 25 -46 40 -38 45 7 5 2 8 -14 8 -15 0 -48
9 -74 21 -25 11 -49 19 -51 16 -3 -3 9 -9 26 -15 16 -6 40 -19 53 -28 22 -16
22 -16 -8 -10 l-30 6 24 -14 c23 -13 23 -14 5 -18 -11 -3 5 -10 39 -17 62 -13
73 -21 29 -19 -15 0 -49 -3 -77 -7 -27 -4 -61 -3 -74 3 -23 8 -21 9 20 16 24
5 40 10 34 12 -5 2 -39 -2 -75 -10 -59 -12 -62 -14 -35 -21 17 -4 44 -10 60
-14 17 -5 68 -7 114 -6 l84 1 -65 -31 -65 -31 14 -35 c7 -19 29 -44 49 -57 20
-13 42 -39 50 -58 8 -19 27 -56 43 -82 16 -26 37 -74 46 -107 32 -118 38 -125
111 -125 16 0 35 -5 42 -12 9 -9 12 -9 12 2 0 18 96 67 107 56 4 -4 0 -12 -10
-17 -44 -25 -132 -179 -102 -179 20 0 76 45 95 76 28 44 34 43 26 -3 -5 -35
-5 -36 5 -10 l11 28 35 -38 c28 -31 30 -32 9 -5 -14 19 -29 46 -32 60 -3 15
-7 32 -9 39 -6 19 14 26 32 11 9 -7 24 -31 34 -53 l18 -40 -2 42 c-1 47 5 58
28 50 17 -7 21 -52 5 -60 -6 -3 -5 -4 2 -3 45 9 31 86 -18 96 -29 6 -30 5 -26
-24 l4 -31 -35 35 c-19 19 -38 45 -42 58 l-7 23 36 -20 c19 -11 36 -16 38 -10
3 10 141 15 157 4 6 -3 9 -11 6 -16 -4 -5 2 -9 12 -9 15 0 16 -2 3 -10 -12 -8
-10 -10 10 -10 20 0 22 -2 10 -10 -29 -19 10 -11 51 11 33 16 38 23 29 34 -19
23 -117 38 -217 33 -51 -2 -93 -3 -93 -1 0 1 21 14 47 27 27 14 41 25 33 26
-11 0 -9 4 5 12 20 12 30 13 113 16 23 1 42 7 42 13 0 12 -57 7 -97 -8 -17 -6
-17 -5 1 15 11 12 24 22 30 22 6 0 4 -5 -4 -10 -13 -8 -12 -10 3 -10 9 0 25 9
34 20 10 11 20 20 23 20 7 0 50 -82 50 -94 0 -3 -9 -6 -20 -6 -11 0 -19 5 -17
12 1 8 -12 11 -43 9 -68 -4 -86 -20 -25 -22 l50 -2 -45 -6 c-43 -6 -41 -7 37
-15 65 -6 88 -13 112 -33 17 -14 31 -30 31 -34 0 -5 -19 -17 -42 -28 -36 -17
-38 -19 -13 -15 96 17 110 50 45 103 -27 21 -40 40 -40 56 0 13 -9 39 -20 59
-24 39 -22 42 49 62 l46 14 -50 -4 -50 -4 60 19 c84 27 89 29 82 35 -5 5 -202
-43 -222 -54 -5 -4 1 -9 14 -12 24 -5 7 -12 -298 -123 -44 -16 -51 -21 -37
-29 10 -5 21 -19 25 -31 6 -17 3 -24 -17 -34 -31 -17 -34 -14 -23 25 13 45 -4
45 -71 -1 -55 -38 -78 -67 -41 -52 29 12 46 11 50 -2 3 -9 -9 -13 -41 -13 -42
0 -46 2 -52 28 -32 140 -109 300 -162 340 -58 42 -65 55 -39 67 12 5 24 12 27
15 14 17 85 50 96 46 7 -3 15 2 18 10 3 8 14 14 24 14 23 0 181 67 204 87 9 8
72 29 140 48 67 18 155 43 193 55 39 11 120 25 180 31 61 5 153 17 205 25 52
9 140 20 195 24 240 20 387 30 394 26 4 -3 101 -7 216 -11 259 -7 517 -31 610
-56 38 -10 86 -19 106 -19 20 0 58 -10 85 -22 54 -23 229 -79 339 -107 39 -10
89 -27 110 -38 22 -11 62 -25 89 -32 80 -20 160 -69 164 -102 l4 -24 -24 21
c-12 11 -36 26 -53 32 l-30 13 25 -21 25 -21 -31 15 c-18 9 -49 19 -71 24
l-39 9 -34 -94 c-37 -102 -49 -118 -81 -110 -17 5 -18 3 -8 -9 7 -9 25 -14 43
-12 29 3 34 9 68 93 21 50 35 96 33 103 -7 19 7 15 70 -23 40 -24 61 -32 65
-24 6 8 9 8 15 0 4 -7 -11 -31 -34 -56 -23 -25 -41 -50 -41 -57 0 -7 -20 -38
-45 -68 -25 -30 -45 -58 -45 -61 0 -15 108 99 115 121 4 14 25 41 46 61 34 31
39 42 39 80 0 25 -5 50 -12 57 -16 16 6 39 58 57 32 12 34 14 14 15 -14 0 -46
-8 -72 -17 -55 -20 -66 -14 -51 27 6 17 7 28 3 25 -5 -3 -12 11 -15 32 -10 56
-13 62 -15 23 -1 -31 -2 -33 -13 -16 -7 11 -32 44 -55 74 -39 47 -44 61 -49
115 -2 34 -13 81 -23 105 -23 50 -35 57 -14 7 29 -70 6 -71 -28 -1 -15 32 -18
35 -13 12 3 -16 20 -49 37 -73 23 -35 29 -53 26 -83 -2 -28 1 -41 14 -49 25
-16 66 -90 73 -136 l7 -40 -27 26 c-15 15 -36 51 -47 80 -18 50 -19 51 -14 15
3 -21 17 -56 31 -77 l25 -39 -22 0 c-33 0 -52 15 -44 35 3 9 3 22 -1 28 -4 7
-9 3 -13 -11 -3 -13 -9 -23 -15 -22 -5 0 -8 11 -5 23 12 53 4 172 -13 202
l-18 30 6 -38 c8 -49 -5 -163 -16 -145 -5 7 -9 27 -10 43 -1 19 -3 23 -6 11
-4 -16 -9 -14 -41 15 -20 19 -28 24 -18 12 20 -24 45 -88 46 -118 0 -33 -27 3
-49 65 -11 30 -20 48 -20 39 -1 -9 6 -36 14 -59 8 -24 14 -45 11 -47 -8 -8
-57 18 -63 33 -4 11 -8 12 -13 4 -8 -13 -140 24 -251 71 -37 16 -81 29 -96 29
-15 0 -59 7 -98 16 -38 8 -97 20 -130 25 -68 12 -548 32 -735 32 -94 0 -116 2
-90 9 42 11 61 34 54 63 -4 18 1 25 28 35 70 28 147 86 244 182 l101 100 -5
-99 c-5 -101 12 -243 29 -243 5 0 6 12 2 28 -14 57 -11 64 39 76 63 17 146 69
228 143 37 35 71 63 75 63 39 0 135 129 160 217 26 88 15 129 -56 215 l-60 73
8 75 c13 125 10 165 -14 198 -14 18 -20 38 -16 51 3 12 0 27 -6 34 -7 10 -7
30 1 73 14 77 -1 150 -53 253 -51 103 -52 152 -5 236 33 60 33 60 87 66 108
13 177 65 227 169 22 47 26 69 26 150 1 83 -2 100 -24 140 -32 57 -97 106
-170 127 -48 15 -59 22 -64 43 -8 40 -67 121 -114 157 -77 58 -195 78 -289 48z
m185 -8 c28 -8 69 -26 91 -41 57 -40 112 -124 118 -180 5 -44 23 -76 23 -40 0
14 7 16 41 11 60 -8 129 -54 164 -112 28 -45 30 -55 29 -139 -1 -103 -17 -157
-65 -217 -46 -58 -108 -91 -175 -93 -62 -2 -68 -6 -111 -91 -18 -34 -25 -64
-24 -94 l1 -44 -40 37 c-94 85 -207 141 -344 171 -63 14 -105 17 -200 12 -67
-4 -136 -11 -153 -16 -36 -11 -40 -6 -19 24 29 42 60 275 36 275 -7 0 -10 -6
-7 -14 3 -8 2 -27 -2 -42 l-7 -28 -41 43 c-60 61 -83 114 -83 192 0 85 22 147
73 205 76 87 198 125 283 89 31 -13 35 -19 30 -37 -15 -51 -19 -91 -9 -85 6 4
13 24 17 46 7 47 62 105 132 140 84 42 154 50 242 28z m-453 -913 c9 -15 18
-36 19 -48 6 -45 51 -112 124 -183 84 -82 175 -155 188 -151 15 4 58 -24 96
-63 l37 -38 -32 6 c-52 9 -158 54 -215 90 -72 46 -135 113 -176 186 -65 119
-101 292 -41 201z m-120 -97 c0 -73 3 -88 26 -123 15 -21 40 -47 56 -56 l29
-17 -25 50 c-27 55 -38 136 -26 196 l7 38 27 -80 c36 -108 73 -168 147 -242
68 -67 189 -134 282 -155 28 -7 52 -18 52 -24 0 -7 -9 -10 -21 -7 -24 7 -42
-14 -30 -35 5 -9 2 -26 -8 -44 -14 -25 -14 -29 -1 -38 8 -5 22 -7 31 -4 11 3
18 -3 22 -17 4 -14 11 -20 21 -16 26 10 19 -8 -30 -73 -61 -80 -202 -193 -309
-247 -88 -45 -132 -54 -202 -43 -78 13 -128 37 -209 101 -77 61 -127 116 -155
171 -20 38 -21 50 -13 133 4 49 8 115 8 145 1 62 -1 57 81 165 33 44 69 99 79
123 l20 43 11 -28 c11 -27 12 -26 19 32 8 59 26 108 46 120 5 3 2 -11 -6 -32
-23 -54 -14 -118 21 -152 19 -18 26 -21 22 -9 -19 55 -19 116 1 162 12 25 22
46 24 46 2 0 3 -37 3 -83z m44 -91 c16 -39 6 -45 -13 -7 -11 20 -16 54 -15
103 l2 73 7 -70 c4 -38 12 -83 19 -99z m-107 72 c-6 -6 -7 0 -4 19 5 21 7 23
10 9 2 -10 0 -22 -6 -28z m5 -50 c-3 -8 -6 -5 -6 6 -1 11 2 17 5 13 3 -3 4
-12 1 -19z m673 -208 c0 -11 -7 -20 -15 -20 -15 0 -21 21 -8 33 12 13 23 7 23
-13z m36 -56 c-5 -13 -10 -14 -18 -6 -6 6 -8 18 -4 28 5 13 10 14 18 6 6 -6 8
-18 4 -28z m-66 6 c0 -11 -7 -20 -15 -20 -8 0 -15 9 -15 20 0 11 7 20 15 20 8
0 15 -9 15 -20z m133 -4 c3 -8 3 -16 0 -19 -9 -10 -33 5 -33 19 0 18 26 18 33
0z m-93 -37 c0 -5 -7 -9 -15 -9 -15 0 -20 12 -9 23 8 8 24 -1 24 -14z m40 1
c0 -5 -5 -10 -11 -10 -5 0 -7 5 -4 10 3 6 8 10 11 10 2 0 4 -4 4 -10z m52 -32
c-15 -15 -26 -4 -18 18 5 13 9 15 18 6 9 -9 9 -15 0 -24z m-116 -55 c-11 -11
-19 6 -11 24 8 17 8 17 12 0 3 -10 2 -21 -1 -24z m51 31 c-3 -3 -12 -4 -19 -1
-8 3 -5 6 6 6 11 1 17 -2 13 -5z m-89 -33 c3 -8 -1 -12 -9 -9 -7 2 -15 10 -17
17 -3 8 1 12 9 9 7 -2 15 -10 17 -17z m92 -16 c0 -8 -9 -15 -20 -15 -11 0 -20
7 -20 15 0 8 9 15 20 15 11 0 20 -7 20 -15z m110 5 c0 -5 -7 -10 -15 -10 -8 0
-15 5 -15 10 0 6 7 10 15 10 8 0 15 -4 15 -10z m-203 -45 c-4 -8 -13 -15 -22
-15 -21 0 -19 28 3 32 22 5 26 2 19 -17z m171 14 c-2 -6 -8 -10 -13 -10 -5 0
-11 4 -13 10 -2 6 4 11 13 11 9 0 15 -5 13 -11z m-118 -30 c0 -20 -25 -37 -37
-25 -3 3 -1 17 5 32 13 28 32 24 32 -7z m-111 -530 c-17 -69 -34 -163 -37
-212 -3 -54 -8 -83 -13 -75 -12 19 -11 165 2 213 13 49 73 205 77 201 2 -2
-11 -59 -29 -127z m-319 108 c0 -7 -27 -24 -61 -39 l-60 -27 -8 22 c-12 31 -5
37 42 38 23 0 51 4 62 9 11 5 21 9 23 9 1 1 2 -5 2 -12z m-1783 -629 c44 -46
9 -31 -44 18 -42 40 -44 43 -15 27 18 -10 45 -30 59 -45z m384 -25 c-11 -21
-35 -54 -55 -72 -39 -38 -48 -34 -16 6 37 48 20 42 -31 -10 -49 -50 -52 -39
-7 25 14 20 109 86 126 88 1 0 -6 -17 -17 -37z m1099 -34 c0 -18 -2 -20 -15
-9 -13 11 -13 15 -3 21 18 12 18 12 18 -12z m-30 -14 c7 -8 8 -15 2 -15 -5 0
-25 -3 -43 -6 l-34 -6 25 21 c30 25 34 25 50 6z m-980 -122 c-15 -51 -21 -60
-47 -72 -14 -6 -27 -10 -29 -9 -3 4 75 108 81 108 2 0 0 -12 -5 -27z m-220
-87 c0 -8 -11 -28 -25 -43 l-24 -28 -1 33 c0 30 12 42 48 51 1 1 2 -5 2 -13z
m-98 -88 c-9 -9 -12 -7 -12 12 0 19 3 21 12 12 9 -9 9 -15 0 -24z m170 -530
c-13 -13 -26 8 -17 30 6 16 7 16 17 -1 7 -13 7 -22 0 -29z m70 -85 c-19 -36
-72 -95 -72 -79 0 13 32 70 58 105 32 43 40 26 14 -26z"/>
<path d="M1854 3281 c24 -25 31 -28 42 -16 18 18 109 30 209 29 122 -2 249
-49 378 -142 26 -18 47 -30 47 -25 0 12 -67 59 -140 100 -131 74 -281 98 -429
69 -75 -14 -87 -14 -101 -1 -30 27 -34 16 -6 -14z"/>
<path d="M1840 3255 c7 -9 15 -13 17 -11 7 7 -7 26 -19 26 -6 0 -6 -6 2 -15z"/>
<path d="M2557 3105 c-35 -34 -35 -46 1 -14 15 13 31 27 37 31 5 5 5 8 -1 8
-5 0 -22 -11 -37 -25z"/>
<path d="M2585 3070 c-3 -5 -2 -10 4 -10 5 0 13 5 16 10 3 6 2 10 -4 10 -5 0
-13 -4 -16 -10z"/>
<path d="M1880 2983 c-84 -14 -61 -24 30 -12 139 17 328 -25 433 -97 46 -31
62 -26 18 5 -114 81 -332 129 -481 104z"/>
<path d="M1930 2490 c-21 -13 -12 -17 58 -23 47 -4 62 -2 62 8 0 7 -7 16 -16
19 -24 9 -87 7 -104 -4z"/>
<path d="M1604 2465 c-9 -21 -6 -22 49 -17 59 5 58 26 -1 30 -31 2 -44 -1 -48
-13z"/>
<path d="M1960 2396 c-68 -22 -110 -159 -58 -187 32 -17 89 -14 147 7 50 18
51 19 51 60 0 23 3 54 6 70 5 25 2 29 -18 30 -13 0 -39 8 -58 16 -28 13 -42
14 -70 4z m126 -108 c5 -29 3 -38 -14 -47 -19 -10 -19 -9 -10 23 9 27 7 41 -6
67 l-17 34 21 -21 c11 -11 23 -36 26 -56z m-118 26 c-4 -23 -26 -30 -34 -10
-8 20 15 51 29 37 5 -5 7 -17 5 -27z m-52 -10 c-7 -19 19 -84 34 -84 6 0 3 12
-7 27 -17 26 -17 26 7 21 14 -3 31 -7 39 -9 8 -2 21 8 28 24 18 35 33 35 33
-1 0 -38 -25 -58 -81 -66 -48 -7 -79 8 -79 39 0 19 18 65 26 65 3 0 3 -7 0
-16z"/>
<path d="M1610 2365 c-14 -8 -33 -14 -42 -15 -14 0 -17 -9 -15 -57 l2 -57 54
-18 c102 -36 150 0 116 88 -13 35 -25 49 -51 60 -39 17 -33 17 -64 -1z m-4
-47 c-8 -20 -10 -41 -5 -53 12 -30 11 -34 -11 -28 -28 7 -27 60 2 90 28 30 30
29 14 -9z m34 -8 c0 -11 -7 -20 -15 -20 -15 0 -21 21 -8 33 12 13 23 7 23 -13z
m70 -26 c0 -51 -67 -77 -90 -34 -8 16 -8 20 4 20 8 0 18 -4 21 -10 11 -17 25
-11 37 15 13 28 28 33 28 9z m1 -57 c-10 -9 -11 -8 -5 6 3 10 9 15 12 12 3 -3
0 -11 -7 -18z"/>
<path d="M1772 2235 c-7 -28 -14 -63 -15 -80 -2 -26 2 -30 26 -33 15 -2 27 1
27 6 0 6 -9 8 -20 5 -28 -7 -35 19 -15 57 9 17 15 45 13 63 -3 29 -4 28 -16
-18z"/>
<path d="M1535 2220 c3 -5 11 -10 16 -10 6 0 7 5 4 10 -3 6 -11 10 -16 10 -6
0 -7 -4 -4 -10z"/>
<path d="M2105 2219 c-11 -17 1 -21 15 -4 8 9 8 15 2 15 -6 0 -14 -5 -17 -11z"/>
<path d="M1830 2163 c0 -4 5 -15 10 -23 8 -13 10 -13 10 2 0 9 -4 20 -10 23
-5 3 -10 3 -10 -2z"/>
<path d="M1967 2076 c-8 -20 -70 -36 -139 -36 -54 0 -72 -10 -48 -25 6 -3 10
-23 10 -43 1 -46 20 -72 53 -72 18 0 41 17 81 61 31 33 56 66 56 74 0 7 4 15
9 17 5 2 4 11 -4 21 -10 15 -14 15 -18 3z m3 -31 c0 -13 -84 -45 -120 -45 -44
0 -56 20 -12 21 15 0 47 6 72 13 55 16 60 17 60 11z m-88 -107 c-25 -25 -36
-30 -48 -23 -20 13 -21 27 0 40 12 7 19 6 25 -3 7 -11 9 -11 14 2 4 9 14 16
24 16 14 0 11 -7 -15 -32z"/>
<path d="M1820 1880 c20 -13 43 -13 35 0 -3 6 -16 10 -28 10 -18 0 -19 -2 -7
-10z"/>
<path d="M1307 1673 c-11 -10 -8 -41 4 -49 16 -9 43 21 36 40 -7 16 -28 21
-40 9z"/>
<path d="M1107 1624 c-4 -4 -7 -16 -7 -26 0 -13 7 -18 26 -18 21 0 25 4 22 22
-3 23 -27 35 -41 22z"/>
<path d="M1769 1584 c-9 -11 -10 -20 -2 -32 15 -24 44 -27 59 -7 28 38 -27 75
-57 39z m49 -17 c2 -12 -3 -17 -17 -17 -15 0 -21 6 -21 21 0 25 33 22 38 -4z"/>
<path d="M947 1576 c-7 -16 1 -26 20 -26 7 0 13 9 13 20 0 23 -25 27 -33 6z"/>
<path d="M1460 1565 c0 -22 4 -26 23 -23 14 2 22 10 22 23 0 13 -8 21 -22 23
-19 3 -23 -1 -23 -23z"/>
<path d="M1234 1545 c-8 -20 4 -35 27 -35 14 0 19 7 19 25 0 18 -5 25 -20 25
-11 0 -23 -7 -26 -15z"/>
<path d="M982 1498 c2 -13 10 -23 18 -23 8 0 16 10 18 23 3 17 -2 22 -18 22
-16 0 -21 -5 -18 -22z"/>
<path d="M1102 1488 c2 -15 10 -23 23 -23 13 0 21 8 23 23 3 18 -1 22 -23 22
-22 0 -26 -4 -23 -22z"/>
<path d="M1343 1493 c-19 -7 -16 -40 4 -47 21 -8 36 6 31 30 -3 19 -16 25 -35
17z"/>
<path d="M834 1456 c-9 -24 4 -48 23 -44 12 2 18 12 18 28 0 29 -32 41 -41 16z"/>
<path d="M1743 1454 c-8 -22 10 -49 32 -49 10 0 22 7 28 16 15 24 1 49 -28 49
-15 0 -28 -7 -32 -16z m55 -11 c5 -17 -26 -29 -40 -15 -6 6 -7 15 -3 22 9 14
37 9 43 -7z"/>
<path d="M1174 1435 c-9 -23 4 -47 23 -43 22 4 30 38 11 49 -19 13 -28 11 -34
-6z"/>
<path d="M917 1404 c-4 -4 -7 -16 -7 -26 0 -13 7 -18 26 -18 21 0 25 4 22 22
-3 23 -27 35 -41 22z"/>
<path d="M1026 1401 c-10 -16 5 -41 24 -41 19 0 34 25 24 41 -3 5 -14 9 -24 9
-10 0 -21 -4 -24 -9z"/>
<path d="M1600 1385 c0 -22 4 -26 23 -23 14 2 22 10 22 23 0 13 -8 21 -22 23
-19 3 -23 -1 -23 -23z"/>
<path d="M1434 1375 c-8 -20 4 -35 27 -35 14 0 19 7 19 25 0 18 -5 25 -20 25
-11 0 -23 -7 -26 -15z"/>
<path d="M1247 1347 c-8 -21 8 -39 29 -35 27 5 25 42 -2 46 -12 2 -24 -3 -27
-11z"/>
<path d="M1090 1295 c0 -22 4 -26 23 -23 14 2 22 10 22 23 0 13 -8 21 -22 23
-19 3 -23 -1 -23 -23z"/>
<path d="M674 1295 c-8 -20 4 -35 27 -35 14 0 19 7 19 25 0 18 -5 25 -20 25
-11 0 -23 -7 -26 -15z"/>
<path d="M800 1285 c0 -20 5 -25 25 -25 20 0 25 5 25 25 0 20 -5 25 -25 25
-20 0 -25 -5 -25 -25z"/>
<path d="M937 1304 c-4 -4 -7 -16 -7 -26 0 -13 7 -18 26 -18 21 0 25 4 22 22
-3 23 -27 35 -41 22z"/>
<path d="M3560 1288 c0 -9 4 -19 8 -22 12 -7 35 -109 30 -132 -3 -13 -9 -4
-21 31 -8 28 -16 41 -16 30 -1 -11 10 -44 24 -73 25 -53 34 -109 16 -97 -6 3
-7 -16 -4 -47 3 -29 1 -69 -4 -88 l-10 -35 86 0 c47 0 94 5 104 11 14 8 3 10
-45 7 -45 -2 -56 0 -38 6 25 9 25 9 -5 10 -43 2 -13 19 48 27 26 4 47 10 47
14 0 4 13 13 30 20 16 7 35 19 42 27 7 9 -1 7 -23 -6 -19 -11 -52 -22 -74 -26
l-40 -6 35 21 c22 13 27 18 13 15 -13 -4 -23 -4 -23 -1 0 9 81 58 120 73 l35
14 -33 -5 c-19 -3 -54 -19 -78 -36 -52 -35 -56 -36 -47 -13 4 9 -13 -5 -37
-31 -24 -25 -45 -45 -47 -42 -7 7 37 89 66 121 l26 30 -33 -30 c-37 -32 -72
-93 -72 -123 0 -18 -18 -42 -31 -42 -4 0 -3 17 2 38 5 20 9 51 9 68 0 16 12
54 26 84 31 65 45 144 32 182 -10 28 -28 29 -28 2 0 -8 5 -12 10 -9 12 7 14
-64 3 -92 -6 -13 -10 -4 -14 32 l-7 50 0 -60 c0 -101 -1 -112 -12 -95 -5 8
-10 31 -10 50 0 19 -5 51 -10 70 -12 44 -50 102 -50 78z"/>
<path d="M1324 1236 c-8 -21 13 -46 32 -39 20 8 13 47 -9 51 -9 2 -20 -4 -23
-12z"/>
<path d="M1164 1205 c-8 -20 4 -35 27 -35 14 0 19 7 19 25 0 18 -5 25 -20 25
-11 0 -23 -7 -26 -15z"/>
<path d="M1004 1186 c-9 -24 4 -48 23 -44 12 2 18 12 18 28 0 29 -32 41 -41
16z"/>
<path d="M877 1184 c-4 -4 -7 -16 -7 -26 0 -13 7 -18 26 -18 21 0 25 4 22 22
-3 23 -27 35 -41 22z"/>
<path d="M1460 1156 c0 -21 5 -26 26 -26 21 0 25 4 22 23 -2 14 -11 23 -25 25
-19 3 -23 -1 -23 -22z"/>
<path d="M431 1151 c-1 -15 -6 -21 -15 -18 -10 4 -12 0 -9 -14 3 -11 9 -22 14
-25 11 -6 22 39 16 63 -4 14 -5 13 -6 -6z"/>
<path d="M740 1114 c-11 -12 -10 -18 3 -32 16 -15 18 -15 34 0 13 14 14 20 3
32 -7 9 -16 16 -20 16 -4 0 -13 -7 -20 -16z"/>
<path d="M1224 1115 c-8 -20 4 -35 27 -35 14 0 19 7 19 25 0 18 -5 25 -20 25
-11 0 -23 -7 -26 -15z"/>
<path d="M3473 1112 c19 -21 23 -52 6 -52 -8 0 -8 -5 1 -15 10 -12 16 -13 26
-4 21 17 17 56 -8 73 -31 22 -45 20 -25 -2z"/>
<path d="M1087 1093 c-4 -3 -7 -15 -7 -25 0 -13 7 -18 25 -18 20 0 25 5 25 25
0 18 -5 25 -18 25 -10 0 -22 -3 -25 -7z"/>
<path d="M914 1075 c-8 -20 4 -35 27 -35 14 0 19 7 19 25 0 18 -5 25 -20 25
-11 0 -23 -7 -26 -15z"/>
<path d="M1818 1023 c12 -2 30 -2 40 0 9 3 -1 5 -23 4 -22 0 -30 -2 -17 -4z"/>
<path d="M1968 1023 c7 -3 16 -2 19 1 4 3 -2 6 -13 5 -11 0 -14 -3 -6 -6z"/>
<path d="M400 992 c0 -18 5 -32 10 -32 6 0 8 11 4 28 -10 39 -14 40 -14 4z"/>
<path d="M3130 1002 c0 -21 43 -66 53 -55 11 11 8 48 -5 61 -18 18 -48 15 -48
-6z m38 -23 c2 -23 2 -23 -13 -5 -18 24 -20 39 -2 34 6 -3 13 -15 15 -29z"/>
<path d="M1432 1000 c10 -6 25 -7 40 -1 20 9 18 10 -17 10 -31 0 -36 -2 -23
-9z"/>
<path d="M1962 978 c-10 -30 -10 -31 3 -14 13 17 21 46 12 46 -1 0 -8 -15 -15
-32z"/>
<path d="M1727 903 l6 -102 -28 -11 c-16 -6 -35 -8 -43 -5 -8 3 -12 0 -10 -7
5 -15 77 -22 96 -10 17 12 6 193 -14 219 -11 15 -12 2 -7 -84z"/>
<path d="M2080 983 c0 -27 -27 -61 -52 -65 -20 -3 -20 -4 5 -17 25 -13 29 -13
53 9 18 18 24 33 22 54 -3 32 -28 49 -28 19z"/>
<path d="M2219 929 c-2 -120 -7 -133 -54 -139 -38 -5 -39 -6 -18 -18 24 -13
62 -16 79 -4 6 4 14 52 18 108 6 84 4 103 -9 114 -13 11 -15 4 -16 -61z"/>
<path d="M1193 983 c-24 -2 -43 -8 -43 -13 0 -10 78 -1 100 11 13 7 13 8 0 7
-8 -1 -34 -3 -57 -5z"/>
<path d="M550 969 c0 -5 5 -7 10 -4 6 3 10 8 10 11 0 2 -4 4 -10 4 -5 0 -10
-5 -10 -11z"/>
<path d="M1570 970 c0 -8 9 -49 20 -90 l20 -75 -21 -17 c-12 -10 -32 -18 -45
-18 -13 0 -24 -4 -24 -9 0 -17 40 -23 75 -11 42 14 43 21 14 133 -19 76 -39
121 -39 87z"/>
<path d="M2467 951 c-6 -29 -10 -31 -49 -32 -24 -1 -35 -3 -25 -6 11 -3 16
-10 13 -20 -3 -8 -6 -32 -6 -53 0 -50 -23 -74 -64 -66 -27 6 -29 5 -16 -8 22
-22 63 -29 82 -14 12 9 20 33 24 75 6 57 9 62 33 65 22 2 27 9 29 37 4 44 -13
62 -21 22z"/>
<path d="M2538 973 c7 -3 16 -2 19 1 4 3 -2 6 -13 5 -11 0 -14 -3 -6 -6z"/>
<path d="M1452 945 c0 -16 2 -22 5 -12 2 9 2 23 0 30 -3 6 -5 -1 -5 -18z"/>
<path d="M992 950 c-48 -11 -54 -23 -7 -15 43 8 83 25 55 24 -8 -1 -30 -5 -48
-9z"/>
<path d="M3531 944 c0 -11 3 -14 6 -6 3 7 2 16 -1 19 -3 4 -6 -2 -5 -13z"/>
<path d="M2753 943 c9 -2 23 -2 30 0 6 3 -1 5 -18 5 -16 0 -22 -2 -12 -5z"/>
<path d="M1293 925 c4 -11 11 -44 17 -73 17 -92 -27 -138 -125 -130 -46 3 -46
3 -25 -14 49 -40 162 -9 176 48 9 36 -14 160 -33 176 -14 11 -15 10 -10 -7z"/>
<path d="M2275 920 c3 -5 10 -10 16 -10 5 0 9 5 9 10 0 6 -7 10 -16 10 -8 0
-12 -4 -9 -10z"/>
<path d="M2848 918 c6 -6 18 -8 28 -6 14 3 12 5 -9 10 -19 3 -25 2 -19 -4z"/>
<path d="M1193 867 c5 -29 14 -56 20 -62 7 -7 8 -4 3 8 -3 10 -9 36 -12 58 -4
22 -10 41 -14 44 -4 2 -3 -19 3 -48z"/>
<path d="M2710 900 c-1 -37 -11 -48 -50 -52 l-35 -3 43 -14 c26 -9 46 -11 52
-5 18 18 21 59 6 79 -15 20 -15 19 -16 -5z"/>
<path d="M777 884 c-16 -9 -72 -28 -124 -44 -92 -28 -123 -43 -111 -55 6 -6
46 7 138 46 100 41 155 68 140 68 -8 0 -28 -7 -43 -15z"/>
<path d="M2597 880 c-4 -14 -7 -35 -7 -48 0 -21 2 -22 15 -8 12 12 14 23 7 48
-8 32 -8 32 -15 8z"/>
<path d="M2850 876 c0 -14 4 -27 8 -30 5 -3 6 8 4 25 -5 35 -12 38 -12 5z"/>
<path d="M48 869 c18 -5 30 -13 28 -18 -3 -4 5 -6 19 -4 43 9 18 33 -34 32
-46 -1 -46 -1 -13 -10z"/>
<path d="M1950 873 c0 -6 4 -23 10 -37 11 -30 3 -37 -40 -38 -46 -1 -30 -23
18 -26 53 -4 59 10 33 69 -12 24 -21 39 -21 32z"/>
<path d="M2967 854 c-3 -11 -10 -37 -16 -59 -34 -136 -29 -128 -67 -122 -44 7
-44 -8 -1 -22 45 -15 64 -6 70 32 2 18 13 62 23 99 14 50 16 70 7 79 -8 8 -12
6 -16 -7z"/>
<path d="M15 850 c3 -5 8 -10 11 -10 2 0 4 5 4 10 0 6 -5 10 -11 10 -5 0 -7
-4 -4 -10z"/>
<path d="M1060 828 c0 -20 -4 -40 -10 -43 -18 -11 -11 -22 13 -20 28 2 35 50
13 80 -15 19 -15 18 -16 -17z"/>
<path d="M1500 835 c-13 -16 -49 -20 -66 -7 -5 4 1 -2 13 -13 13 -12 23 -26
23 -32 0 -14 -66 -37 -85 -29 -8 3 -15 1 -15 -5 0 -19 51 -30 87 -18 28 9 33
15 31 39 -1 17 6 38 17 49 10 12 16 23 13 26 -3 3 -11 -1 -18 -10z"/>
<path d="M2085 830 c-8 -25 -47 -42 -72 -33 -16 6 -16 5 -4 -10 16 -20 71 -23
89 -5 14 14 16 54 3 63 -5 3 -13 -4 -16 -15z"/>
<path d="M951 804 c0 -11 3 -14 6 -6 3 7 2 16 -1 19 -3 4 -6 -2 -5 -13z"/>
<path d="M3230 810 c8 -5 22 -9 30 -9 10 0 8 3 -5 9 -27 12 -43 12 -25 0z"/>
<path d="M2688 783 c-2 -21 -12 -31 -40 -41 -33 -13 -43 -13 -83 0 -53 18 -57
15 -12 -12 35 -22 106 -27 138 -10 14 8 19 21 19 50 0 45 -17 55 -22 13z"/>
<path d="M3186 784 c-7 -26 -28 -30 -72 -14 -15 6 -29 8 -31 6 -3 -3 14 -10
36 -17 35 -10 40 -15 35 -33 -3 -12 -12 -26 -20 -32 -13 -10 -12 -13 1 -18 12
-4 14 -12 9 -28 -13 -45 -21 -47 -85 -27 -113 35 -106 14 9 -25 79 -27 83 -26
89 34 2 19 8 39 14 44 5 6 9 20 9 33 0 13 4 23 9 23 5 0 14 14 20 31 14 39 14
36 -3 42 -9 4 -16 -3 -20 -19z"/>
<path d="M3295 790 c27 -12 43 -12 25 0 -8 5 -22 9 -30 9 -10 0 -8 -3 5 -9z"/>
<path d="M785 779 c5 -8 25 -39 46 -70 42 -63 40 -81 -16 -99 -40 -13 -38 -30
3 -30 30 0 72 25 72 42 0 13 -89 156 -103 165 -6 4 -7 1 -2 -8z"/>
<path d="M423 760 c-13 -5 -23 -12 -23 -15 0 -9 16 -5 36 10 22 16 19 18 -13
5z"/>
<path d="M2815 760 c3 -5 3 -21 -1 -36 -6 -24 -10 -26 -47 -21 -36 5 -38 4
-24 -10 21 -21 94 -24 88 -3 -8 28 -3 63 11 71 9 6 7 9 -10 9 -13 0 -21 -4
-17 -10z"/>
<path d="M3311 758 c1 -7 5 -24 9 -38 8 -23 8 -22 7 8 -1 19 -5 36 -9 38 -4 3
-8 -1 -7 -8z"/>
<path d="M3470 746 c0 -3 9 -10 20 -16 11 -6 20 -8 20 -6 0 3 -9 10 -20 16
-11 6 -20 8 -20 6z"/>
<path d="M700 731 c0 -5 5 -13 10 -16 6 -3 10 -2 10 4 0 5 -4 13 -10 16 -5 3
-10 2 -10 -4z"/>
<path d="M1087 709 c-15 -28 -21 -31 -57 -27 -24 2 -41 -1 -44 -8 -3 -7 -21
-17 -40 -24 -41 -13 -39 -30 2 -30 32 0 75 27 67 41 -4 5 5 4 19 -2 35 -16 75
-4 87 28 7 19 6 30 -3 39 -11 11 -16 8 -31 -17z"/>
<path d="M960 716 c0 -2 7 -7 16 -10 8 -3 12 -2 9 4 -6 10 -25 14 -25 6z"/>
<path d="M560 707 c0 -2 14 -34 30 -70 17 -37 30 -73 30 -82 0 -15 -48 -45
-74 -45 -19 0 -40 36 -32 56 6 16 -3 18 -24 4 -8 -5 -10 -10 -4 -10 6 0 16
-12 23 -27 11 -24 10 -29 -9 -45 -12 -10 -34 -18 -47 -18 -22 0 -24 -2 -13
-15 7 -8 22 -15 34 -15 26 0 66 26 66 44 0 8 11 11 33 8 22 -2 41 3 57 16 l24
19 -39 87 c-32 73 -55 111 -55 93z"/>
<path d="M3065 700 c11 -5 27 -9 35 -9 9 0 8 4 -5 9 -11 5 -27 9 -35 9 -9 0
-8 -4 5 -9z"/>
<path d="M264 675 c-16 -12 -16 -14 -3 -15 9 0 22 7 29 15 16 19 0 19 -26 0z"/>
<path d="M318 669 c-21 -11 -38 -24 -38 -29 0 -17 14 -11 50 20 41 34 38 36
-12 9z"/>
<path d="M2043 683 c9 -2 23 -2 30 0 6 3 -1 5 -18 5 -16 0 -22 -2 -12 -5z"/>
<path d="M2118 673 c6 -2 18 -2 25 0 6 3 1 5 -13 5 -14 0 -19 -2 -12 -5z"/>
<path d="M1650 660 c0 -12 97 -12 125 0 14 6 -3 9 -52 9 -43 1 -73 -3 -73 -9z"/>
<path d="M755 650 c-3 -5 -18 -10 -33 -11 l-27 -1 25 -7 c41 -11 32 -43 -18
-61 -23 -9 -39 -19 -36 -23 14 -14 72 -7 94 11 21 17 22 20 7 49 -12 23 -13
33 -4 42 6 6 8 11 5 11 -4 0 -10 -4 -13 -10z"/>
<path d="M3500 635 c31 -23 60 -33 60 -20 0 5 -76 45 -87 45 -4 0 8 -11 27
-25z"/>
<path d="M2110 639 c-20 -6 -87 -9 -155 -7 -111 5 -310 -8 -499 -32 -44 -5
-82 -8 -84 -5 -3 3 0 5 6 5 7 0 12 4 12 9 0 5 -16 5 -37 0 -21 -5 -54 -9 -73
-10 -33 -2 -32 -2 10 -8 l45 -7 -60 -13 c-124 -27 -133 -31 -60 -25 38 4 126
17 195 30 107 21 165 25 404 30 154 2 282 7 286 9 10 6 213 -13 326 -31 50 -8
116 -14 145 -14 49 0 150 -12 207 -25 20 -5 22 -10 16 -43 -3 -20 -24 -64 -45
-96 -62 -93 -55 -109 60 -136 45 -11 96 -27 113 -36 17 -9 41 -18 54 -20 25
-5 25 -2 9 81 -6 31 9 47 41 43 23 -2 28 -7 26 -23 -2 -11 -6 -40 -9 -65 l-5
-45 41 40 c23 21 41 35 42 30 0 -6 1 -30 0 -55 0 -37 2 -41 9 -20 4 14 9 50
11 80 l2 55 7 -45 c7 -43 7 -44 9 -10 l3 35 8 -29 c9 -29 66 -96 82 -96 14 0
9 79 -7 117 -8 20 -14 37 -12 39 7 8 24 -15 38 -52 16 -41 17 -58 6 -149 l-7
-50 14 50 c12 48 13 49 21 22 4 -16 5 -49 2 -74 -3 -28 -1 -40 4 -32 5 8 9 24
9 36 0 38 18 35 39 -6 12 -22 26 -43 32 -47 6 -4 -1 14 -16 39 -14 26 -24 51
-21 56 3 5 -1 14 -8 20 -15 12 -39 71 -30 71 15 0 54 -27 93 -64 26 -25 39
-33 32 -20 -14 29 -100 104 -118 104 -16 0 -36 47 -29 67 3 7 14 13 25 13 25
0 51 10 51 20 0 24 -270 129 -396 155 -44 9 -119 29 -168 45 -49 17 -99 30
-110 30 -15 0 -17 3 -8 9 10 6 1 11 -27 18 -23 6 -38 7 -35 2 3 -5 12 -9 21
-9 9 0 14 -2 11 -5 -9 -9 -310 16 -368 30 -84 21 -141 25 -180 14z m733 -149
c-3 -11 -10 -23 -16 -27 -7 -4 -8 0 -4 11 4 10 7 22 7 27 0 5 4 9 9 9 5 0 7
-9 4 -20z m164 -46 l-28 -24 45 0 c50 0 69 -15 31 -24 -34 -9 -31 -25 5 -32
16 -4 27 -10 24 -15 -3 -5 -13 -5 -22 0 -24 12 -199 21 -247 13 -46 -8 -64
-42 -22 -42 14 0 41 -7 60 -15 42 -17 58 -19 37 -4 -12 8 -10 10 10 5 21 -4
23 -3 9 7 -14 11 -11 13 20 13 l36 1 1 -53 c1 -54 -3 -57 -38 -27 -9 8 -56 27
-104 43 -49 15 -90 33 -92 40 -4 12 65 120 78 120 18 0 15 -14 -9 -38 -31 -31
-20 -37 49 -23 37 7 40 9 15 10 -41 2 -13 20 35 22 30 2 31 3 8 6 -34 5 -37
23 -5 24 22 1 21 1 -2 8 -14 4 8 7 55 8 l79 1 -28 -24z m113 -54 c0 -5 -15
-10 -32 -9 -28 0 -30 2 -13 9 28 12 45 12 45 0z m147 -32 c-3 -8 -6 -5 -6 6
-1 11 2 17 5 13 3 -3 4 -12 1 -19z m-63 -25 c14 -21 29 -58 35 -83 l10 -45
-29 35 c-25 31 -50 89 -50 119 0 19 9 12 34 -26z m-97 -15 c-9 -33 -57 -97
-57 -74 0 17 24 71 43 94 14 17 21 8 14 -20z"/>
<path d="M318 629 c-10 -5 -18 -17 -18 -25 0 -12 4 -12 25 2 38 25 32 46 -7
23z"/>
<path d="M3243 600 c2 -34 1 -35 -33 -33 -33 1 -34 0 -16 -13 11 -8 32 -14 47
-14 26 0 27 2 19 28 -5 15 -11 36 -14 47 -2 11 -4 4 -3 -15z"/>
<path d="M3469 600 c24 -21 51 -26 51 -12 0 10 -45 32 -63 32 -7 -1 -1 -10 12
-20z"/>
<path d="M330 585 c-7 -9 -10 -18 -7 -22 8 -7 37 15 37 28 0 14 -16 11 -30 -6z"/>
<path d="M357 559 c-9 -6 -17 -18 -17 -27 0 -14 4 -13 22 6 24 24 22 36 -5 21z"/>
<path d="M2874 556 c11 -9 29 -16 40 -16 12 0 32 -3 45 -7 16 -4 22 -2 18 4
-4 6 -24 14 -44 17 -21 4 -47 9 -58 12 -20 5 -20 5 -1 -10z"/>
<path d="M3455 550 c10 -11 22 -20 27 -20 15 0 9 28 -8 34 -30 11 -37 6 -19
-14z"/>
<path d="M1108 533 c6 -2 18 -2 25 0 6 3 1 5 -13 5 -14 0 -19 -2 -12 -5z"/>
<path d="M705 455 c-27 -13 -47 -24 -43 -24 10 -1 98 38 98 44 0 7 3 8 -55
-20z"/>
<path d="M385 460 c-3 -5 -1 -10 4 -10 6 0 11 5 11 10 0 6 -2 10 -4 10 -3 0
-8 -4 -11 -10z"/>
<path d="M3330 415 c36 -27 50 -31 50 -15 0 11 -52 40 -71 40 -7 0 2 -11 21
-25z"/>
<path d="M495 360 c-3 -6 1 -7 9 -4 18 7 21 14 7 14 -6 0 -13 -4 -16 -10z"/>
<path d="M798 343 c6 -2 18 -2 25 0 6 3 1 5 -13 5 -14 0 -19 -2 -12 -5z"/>
<path d="M863 288 c4 -10 0 -33 -9 -53 -16 -38 -10 -85 11 -85 7 0 16 7 19 16
3 8 2 12 -4 9 -13 -8 -13 -1 1 45 10 32 9 42 -6 61 -11 15 -15 17 -12 7z"/>
<path d="M933 210 c-46 -27 -41 -34 5 -8 46 27 48 28 36 28 -5 0 -24 -9 -41
-20z"/>
<path d="M3161 214 c0 -11 3 -14 6 -6 3 7 2 16 -1 19 -3 4 -6 -2 -5 -13z"/>
<path d="M3171 174 c0 -11 3 -14 6 -6 3 7 2 16 -1 19 -3 4 -6 -2 -5 -13z"/>
<path d="M761 124 c0 -11 3 -14 6 -6 3 7 2 16 -1 19 -3 4 -6 -2 -5 -13z"/>
<path d="M3092 128 c-25 -25 -6 -68 30 -68 25 0 33 25 20 56 -13 26 -31 31
-50 12z m33 -29 c4 -11 5 -23 2 -25 -8 -8 -38 27 -32 37 10 15 23 10 30 -12z"/>
</g>
</svg>
